<svg xmlns="http://www.w3.org/2000/svg" viewBox="0 0 60 60"><defs><style>.ic_calendar2_cls-1{fill:#fff;opacity:0;}.ic_calendar2_cls-2{fill:#00703c;}.ic_calendar2_cls-3{fill:#dbf1e4;}</style></defs><title>Asset 97</title><g id="Layer_2" data-name="Layer 2"><g id="Layer_1-2" data-name="Layer 1"><rect class="ic_calendar2_cls-1" width="60" height="60"></rect><path class="ic_calendar2_cls-2" d="M59.23,8.39A6,6,0,1,0,47.36,7H44.68a6,6,0,0,0-12,0H30A6,6,0,0,0,18,7H15.34a6,6,0,0,0-12,0C1.22,7.28,0,8.68,0,11V55a3.64,3.64,0,0,0,4,4H56a3.64,3.64,0,0,0,4-4V11A4.24,4.24,0,0,0,59.23,8.39ZM58,11v5H6V11c0-1.44.56-2,2-2h4.9a4,4,0,0,1-3.54,2.18,1,1,0,0,0,0,2A6,6,0,0,0,15.07,9H27.56A4,4,0,0,1,24,11.18a1,1,0,0,0,0,2A6,6,0,0,0,29.74,9H42.23a4,4,0,0,1-3.54,2.18,1,1,0,0,0,0,2A6,6,0,0,0,44.4,9H56a3.38,3.38,0,0,1,.84.09,4,4,0,0,1-3.49,2.09,1,1,0,0,0,0,2A6,6,0,0,0,58,11ZM53.35,3.18a4,4,0,0,1,4,4A5.21,5.21,0,0,0,56,7H49.37A4,4,0,0,1,53.35,3.18Zm-14.67,0a4,4,0,0,1,4,3.82h-8A4,4,0,0,1,38.68,3.18ZM24,3.18A4,4,0,0,1,28,7H20A4,4,0,0,1,24,3.18Zm-14.67,0a4,4,0,0,1,4,3.82h-8A4,4,0,0,1,9.35,3.18ZM2,55V11c0-1.44.56-2,2-2h.41A4.7,4.7,0,0,0,4,11V54a6.19,6.19,0,0,0,.74,3H4C2.56,57,2,56.44,2,55Zm56,0c0,1.44-.56,2-2,2H8c-1.58,0-2-2-2-3V18H58Z"></path><path class="ic_calendar2_cls-2" d="M15,31H48a1,1,0,0,0,0-2H15a1,1,0,0,0,0,2Z"></path><path class="ic_calendar2_cls-2" d="M15,44H48a1,1,0,0,0,0-2H15a1,1,0,0,0,0,2Z"></path><circle class="ic_calendar2_cls-3" cx="25" cy="43" r="6"></circle><circle class="ic_calendar2_cls-3" cx="36" cy="30" r="6"></circle></g></g></svg>