<svg xmlns="http://www.w3.org/2000/svg" viewBox="0 0 60 60"><defs><style>.ic_globus2_cls-1{fill:#fff;opacity:0;}.ic_globus2_cls-2{fill:#dbf1e4;}.ic_globus2_cls-3{fill:#00703c;}</style></defs><title>Asset 100</title><g id="Layer_2" data-name="Layer 2"><g id="Layer_1-2" data-name="Layer 1"><rect class="ic_globus2_cls-1" width="60" height="60"></rect><circle class="ic_globus2_cls-2" cx="29.91" cy="30" r="24.14"></circle><path class="ic_globus2_cls-3" d="M60,30A30,30,0,1,0,27.65,59.9l.12.06,0-.05c.73.05,1.46.09,2.21.09q.8,0,1.58,0v0l0,0A30,30,0,0,0,60,30ZM43,46.31A41,41,0,0,0,45.89,31H58a27.91,27.91,0,0,1-8.06,18.66A27.88,27.88,0,0,0,43,46.31ZM31.1,58H31V46.32a38.77,38.77,0,0,1,9.27,1.25A24.54,24.54,0,0,1,31.1,58Zm-9.7-6.91a5.26,5.26,0,0,0,1.67-3.83c0-.13,0-.24,0-.37a44.88,44.88,0,0,1,6-.54V58l-.72,0A25.11,25.11,0,0,1,21.4,51.07Zm-3.63-.54a3.29,3.29,0,1,1,3.29-3.29A3.3,3.3,0,0,1,17.77,50.52ZM31,44.32V31H43.89a38.9,38.9,0,0,1-2.77,14.72A40.84,40.84,0,0,0,31,44.32ZM28.68,2.39,28.5,2,29,2V14.72a38.34,38.34,0,0,1-10-1.44C22.76,5.44,28.32,2.57,28.68,2.39ZM17.05,12.66a25.92,25.92,0,0,1-6.18-3.08A27.93,27.93,0,0,1,25,2.46,28.39,28.39,0,0,0,17.05,12.66Zm25-4.15A5.26,5.26,0,0,0,40,8.94a28.87,28.87,0,0,0-6-6.64A27.92,27.92,0,0,1,49.32,9.76a22.33,22.33,0,0,1-2.64,1.46A5.27,5.27,0,0,0,42.09,8.51Zm0,8.58a3.29,3.29,0,1,1,3.29-3.29A3.3,3.3,0,0,1,42.09,17.1ZM36.8,13.81c0,.13,0,.24,0,.37a44.76,44.76,0,0,1-5.83.54V2.57a25.13,25.13,0,0,1,7.36,7.49A5.28,5.28,0,0,0,36.8,13.81ZM29,16.72V29H15.5a38.79,38.79,0,0,1,2.65-13.86A40.41,40.41,0,0,0,29,16.72Zm2,0a46.76,46.76,0,0,0,6.35-.59,5.28,5.28,0,0,0,4.74,3c.11,0,.2,0,.31,0A41.58,41.58,0,0,1,43.85,29H31ZM58,29H45.85a43.61,43.61,0,0,0-1.52-10.42,5.29,5.29,0,0,0,3-4.77,5.21,5.21,0,0,0-.07-.68,23.09,23.09,0,0,0,3.43-1.91A27.89,27.89,0,0,1,58,29ZM9.44,11a26.37,26.37,0,0,0,6.8,3.5A40.87,40.87,0,0,0,13.5,29H2A27.89,27.89,0,0,1,9.44,11ZM2,31H13.51a43.66,43.66,0,0,0,1.66,11.5l1.92-.56A41.67,41.67,0,0,1,15.51,31H29V44.33a46.88,46.88,0,0,0-6.49.6,5.28,5.28,0,0,0-10,2.31,5.2,5.2,0,0,0,.07.68,26.16,26.16,0,0,0-2.74,1.46A27.89,27.89,0,0,1,2,31ZM11.3,50.82c.48-.28,1.11-.62,1.89-1a5.22,5.22,0,0,0,6.53,2.32,29.35,29.35,0,0,0,4.6,5.27A27.94,27.94,0,0,1,11.3,50.82Zm30.92-2.65a27.5,27.5,0,0,1,6.2,2.9,27.91,27.91,0,0,1-13.29,6.45A28.67,28.67,0,0,0,42.22,48.17Z"></path></g></g></svg>