<svg xmlns="http://www.w3.org/2000/svg" viewBox="0 0 60 60"><defs><style>.ic_percent_cls-1{fill:#fff;opacity:0;}.ic_percent_cls-2{fill:#dbf1e4;}.ic_percent_cls-3{fill:#00703c;}</style></defs><title>Asset 95</title><g id="Layer_2" data-name="Layer 2"><g id="Layer_1-2" data-name="Layer 1"><rect class="ic_percent_cls-1" width="60" height="60"></rect><path class="ic_percent_cls-2" d="M29.81.49A29.76,29.76,0,0,0,.42,34.93l7-.53a22.87,22.87,0,1,1,10.11,15l3.58-2.62L6.81,41.73l.52,15.13,4.25-3.11A29.75,29.75,0,1,0,29.81.49Z"></path><path class="ic_percent_cls-3" d="M29.43,25.57c.13-3-1.63-5.53-3.94-5.64s-4.28,2.26-4.41,5.27,1.63,5.53,3.94,5.64S29.29,28.58,29.43,25.57Zm-6.35-.28c.09-2,1.3-3.41,2.33-3.36s2.12,1.51,2,3.55-1.3,3.4-2.33,3.36S23,27.33,23.07,25.29Z"></path><path class="ic_percent_cls-3" d="M35.08,29.35c-2.31-.1-4.28,2.26-4.41,5.27s1.63,5.53,3.94,5.64S38.88,38,39,35,37.38,29.45,35.08,29.35Zm-.39,8.91c-1,0-2.12-1.51-2-3.55S34,31.31,35,31.35s2.12,1.51,2,3.55S35.72,38.31,34.69,38.26Z"></path><path class="ic_percent_cls-3" d="M35.24,20.47a1,1,0,0,0-1.36.4L24.36,38.46a1,1,0,1,0,1.76,1l9.53-17.59A1,1,0,0,0,35.24,20.47Z"></path></g></g></svg>