<svg xmlns="http://www.w3.org/2000/svg" viewBox="0 0 60 60"><defs><style>.ic_globus2_cls-1{fill:#fff;opacity:0;}.ic_globus2_cls-2{opacity:0.25;}.cls-3{fill:#00703c;}</style></defs><title>Asset 99</title><g id="Layer_2" data-name="Layer 2"><g id="Layer_1-2" data-name="Layer 1"><rect class="ic_globus2_cls-1" width="60" height="60"></rect><g class="ic_globus2_cls-2"><path class="ic_globus2_cls-3" d="M12.49,36.27,9,33.86a7.94,7.94,0,0,0-1,1.21l4.41,3.08,7-4.87L19,32.81a7.9,7.9,0,0,0-.85-.49Z"></path><path class="ic_globus2_cls-3" d="M12.49,40.55,7.21,36.87a7.88,7.88,0,1,0,13.74-2.22Z"></path></g><path class="ic_globus2_cls-3" d="M57,15H37v2H57a1,1,0,0,1,1,1V54a1,1,0,0,1-1,1H3a1,1,0,0,1-1-1V18a1,1,0,0,1,1-1H22V15H3a3,3,0,0,0-3,3V54a3,3,0,0,0,3,3H57a3,3,0,0,0,3-3V18A3,3,0,0,0,57,15Z"></path><path class="ic_globus2_cls-3" d="M26,23h7a3,3,0,0,0,3-3V3a3,3,0,0,0-3-3H26a3,3,0,0,0-3,3V20A3,3,0,0,0,26,23ZM25,3a1,1,0,0,1,1-1h7a1,1,0,0,1,1,1V20a1,1,0,0,1-1,1H26a1,1,0,0,1-1-1Z"></path><path class="ic_globus2_cls-3" d="M42,23.5A1.5,1.5,0,0,1,40.5,25h-21a1.5,1.5,0,0,1,0-3H22V20H19.5a3.5,3.5,0,0,0,0,7h21a3.5,3.5,0,0,0,0-7H37v2h3.5A1.5,1.5,0,0,1,42,23.5Z"></path><circle class="ic_globus2_cls-3" cx="29.5" cy="6.5" r="2.5"></circle><rect class="ic_globus2_cls-3" x="28" y="33" width="14" height="2"></rect><rect class="ic_globus2_cls-3" x="28" y="39" width="11" height="2"></rect><rect class="ic_globus2_cls-3" x="41" y="39" width="10" height="2"></rect><rect class="ic_globus2_cls-3" x="28" y="45" width="6" height="2"></rect><rect class="ic_globus2_cls-3" x="36" y="45" width="11" height="2"></rect></g></g></svg>