<svg xmlns="http://www.w3.org/2000/svg" viewBox="0 0 60 60"><defs><style>.ic_comp_cls-1,.ic_comp_cls-2{fill:#fff;}.ic_comp_cls-2{opacity:0;}</style></defs><title>Asset 104</title><g id="Layer_2" data-name="Layer 2"><g id="Layer_1-2" data-name="Layer 1"><path class="ic_comp_cls-1" d="M56.94,0H3A3,3,0,0,0,0,3V46a3,3,0,0,0,3,3H21v5H14.94a1,1,0,0,0,0,2h30a1,1,0,0,0,0-2H38V49H56.94a3,3,0,0,0,3-3V3A3,3,0,0,0,56.94,0ZM3,2H56.94a1,1,0,0,1,1,1V38H2V3A1,1,0,0,1,3,2ZM36,54H23V49H36Zm20.94-7H3a1,1,0,0,1-1-1V40H57.94v6A1,1,0,0,1,56.94,47Z"></path><rect class="ic_comp_cls-1" x="28.44" y="42" width="3" height="3"></rect><path class="ic_comp_cls-1" d="M29.94,25a8.5,8.5,0,1,0-8.5-8.5A8.51,8.51,0,0,0,29.94,25Zm0-15a6.5,6.5,0,1,1-6.5,6.5A6.51,6.51,0,0,1,29.94,10Z"></path><path class="ic_comp_cls-1" d="M16.94,37a1,1,0,0,0,1-1c0-6.09,7.52-7,12-7s12,.91,12,7a1,1,0,0,0,2,0c0-5.72-5.1-9-14-9s-14,3.28-14,9A1,1,0,0,0,16.94,37Z"></path><rect class="ic_comp_cls-2" width="60" height="60"></rect></g></g></svg>