<svg xmlns="http://www.w3.org/2000/svg" viewBox="0 0 60 60"><defs><style>.ic_bill_cls-1{fill:#fff;opacity:0;}.ic_bill_cls-2{fill:#dbf1e4;}.ic_bill_cls-3{fill:#00703c;}</style></defs><title>Asset 98</title><g id="Layer_2" data-name="Layer 2"><g id="Layer_1-2" data-name="Layer 1"><rect class="ic_bill_cls-1" width="60" height="60"></rect><path class="ic_bill_cls-2" d="M52,27.5v-7A5.5,5.5,0,0,1,46.5,15h-14A5.5,5.5,0,0,1,27,20.5v7A5.5,5.5,0,0,1,32.5,33h14A5.5,5.5,0,0,1,52,27.5Z"></path><path class="ic_bill_cls-3" d="M10,33h2V29h7V27H12V25h5c3.64,0,6-2,6-5s-2.39-5-6-5H10l0,8H8v2h2v2H8v2h2Zm2-16h5c2.57,0,4,.89,4,3s-1.43,3-4,3H12Z"></path><path class="ic_bill_cls-3" d="M57,7H3a3,3,0,0,0-3,3V49a3,3,0,0,0,3,3H57a3,3,0,0,0,3-3V10A3,3,0,0,0,57,7ZM3,9H57a1,1,0,0,1,1,1V38H2V10A1,1,0,0,1,3,9ZM2,42V40H58v2Zm56,2v2H2V44Zm-1,6H3a1,1,0,0,1-1-1V48H58v1A1,1,0,0,1,57,50Z"></path></g></g></svg>