<svg xmlns="http://www.w3.org/2000/svg" viewBox="0 0 60 60"><defs><style>.ic_doc-sign_cls-1,.ic_doc-sign_cls-2{fill:#fff;}.ic_doc-sign_cls-1{opacity:0;}</style></defs><title>Asset 102</title><g id="Layer_2" data-name="Layer 2"><g id="Layer_1-2" data-name="Layer 1"><rect class="ic_doc-sign_cls-1" width="60" height="60"></rect><path class="ic_doc-sign_cls-2" d="M51,52H20a1,1,0,0,1,0-2H50V9.28c-.66-.86-3.52-4-5.46-6.19L43.55,2H12V45.94a1,1,0,0,1-2,0V1a1,1,0,0,1,1-1H44a1,1,0,0,1,.74.33L46,1.75C52,8.38,52,8.44,52,9V51A1,1,0,0,1,51,52Z"></path><path class="ic_doc-sign_cls-2" d="M50.92,10H44.08a1,1,0,0,1-1-1V1a1,1,0,0,1,2,0V8h5.85a1,1,0,0,1,0,2Z"></path><path class="ic_doc-sign_cls-2" d="M43.51,20h-25a1,1,0,0,1,0-2h25a1,1,0,0,1,0,2Z"></path><path class="ic_doc-sign_cls-2" d="M43.51,24h-25a1,1,0,0,1,0-2h25a1,1,0,0,1,0,2Z"></path><path class="ic_doc-sign_cls-2" d="M43.51,28h-25a1,1,0,0,1,0-2h25a1,1,0,0,1,0,2Z"></path><path class="ic_doc-sign_cls-2" d="M27.47,32H18.53a1,1,0,0,1,0-2h8.94a1,1,0,0,1,0,2Z"></path><path class="ic_doc-sign_cls-2" d="M23.48,12h-5a1,1,0,0,1,0-2h5a1,1,0,1,1,0,2Z"></path><path class="ic_doc-sign_cls-2" d="M29.46,8H18.54a1,1,0,0,1,0-2H29.46a1,1,0,0,1,0,2Z"></path><path class="ic_doc-sign_cls-2" d="M32.86,46.09a2,2,0,0,1-.84-.18c-1.27-.59-1.47-2.26-1.38-3.8l-2.5,1.15a1,1,0,1,1-.83-1.82l3.61-1.66c.65-3.54,2-5,3.15-5.57A3.15,3.15,0,0,1,37,34.09a2.42,2.42,0,0,1,1.36,2.18c0,1.34-1,2.62-2.78,3.51-.63.32-1.69.83-2.82,1.35v.12c-.28,2.38.15,2.84.16,2.85a3.25,3.25,0,0,0,1.49-.94l.2-.22c.7-.8,1.66-1.9,2.75-1.53l.21.09A4.1,4.1,0,0,1,40,40.21a1.92,1.92,0,0,1,1.49.54,3.78,3.78,0,0,1,2.16-.86A2.37,2.37,0,0,1,46.08,41a2.33,2.33,0,0,1-.29,2.46,1,1,0,1,1-1.63-1.16.7.7,0,0,0,.15-.34,2.65,2.65,0,0,0-.41,0h-.12c-.93,0-1.7,1.09-1.92,1.48A1,1,0,0,1,40,42.78l0-.17a3.63,3.63,0,0,0,0-.38,4.31,4.31,0,0,0-1.88,1.57,1,1,0,0,1-1.65,0l-.44.49-.24.27A5,5,0,0,1,32.86,46.09ZM36.32,43Zm-.64-7.23A1.43,1.43,0,0,0,35,36a4.3,4.3,0,0,0-1.77,2.72L34.65,38c1.24-.63,1.68-1.33,1.69-1.73a.42.42,0,0,0-.27-.4A.88.88,0,0,0,35.68,35.79Z"></path><path class="ic_doc-sign_cls-2" d="M17.25,60H7.12a1,1,0,0,1-1-1V56.27A8,8,0,0,0,5,53.16a14.38,14.38,0,0,1-1.9-6.56c0-3.12,2.46-8.2,6.11-10.78a1,1,0,0,1,1.15,1.63c-3.26,2.3-5.26,6.87-5.26,9.14a12.55,12.55,0,0,0,1.69,5.68,9.39,9.39,0,0,1,1.31,4V58h8.12V56.33a5.06,5.06,0,0,1,1-2.53,7.29,7.29,0,0,0,1.34-4A20.9,20.9,0,0,0,17.78,44c-.1-.43-.21-.87-.32-1.34-.18-.81-.34-1.44-.47-2a23.32,23.32,0,0,1-.61-3.15l-.05-.5c-.18-1.77-.34-1.93-1.08-1.93a.74.74,0,0,0-.62.18c-.23.22-.51.79-.51,2.19a1,1,0,0,1-.45.84h0a1,1,0,0,1-1.12,0h0a1,1,0,0,1-.44-.83,5,5,0,0,1,1.12-3.63,2.79,2.79,0,0,1,2-.74h0c2.66,0,2.89,2.33,3,3.73l0,.47a21.43,21.43,0,0,0,.57,2.91c.13.54.29,1.18.47,2,.1.46.21.89.31,1.31a22.82,22.82,0,0,1,.84,6.27,9.21,9.21,0,0,1-1.62,5,3.93,3.93,0,0,0-.69,1.5V59A1,1,0,0,1,17.25,60ZM10.37,47a1,1,0,0,1-.21-2c.21-.05,2-.57,2-3.76l1-1.88,1,1.88c0,5-3.41,5.69-3.56,5.71Z"></path></g></g></svg>