<svg xmlns="http://www.w3.org/2000/svg" viewBox="0 0 32 32">
  <circle fill="#455895" cx="16" cy="16" r="16"></circle>
  <path fill="#fff" d="M16.42 7h3.34v3.08c0 .22 0 .23-.23.23h-1.74c-.58 0-.86.27-.93.82a1.66 1.66 0 0 0 0 .2v1.62c0 .22 0 .23.23.23h2.5c.19 0 .21 0 .19.21l-.31 2.91c0 .16-.07.2-.23.2h-2.19c-.2 0-.2 0-.21.21V25.99h-3.61v-2-7.25c0-.27 0-.27-.27-.27h-1.88c-.21 0-.22 0-.22-.22v-2.87c0-.21 0-.23.24-.23H13c.21 0 .23 0 .23-.22v-1.88a7.1 7.1 0 0 1 .26-2 2.86 2.86 0 0 1 .74-1.26 3 3 0 0 1 1.43-.73c.25.02.5-.06.76-.06z" id="QV9IXL.tif"></path>
</svg>