<svg xmlns="http://www.w3.org/2000/svg" viewBox="0 0 32 32">
  <circle fill="#5b7fa6" cx="16" cy="16" r="16"></circle>
  <path fill="#fff" d="M8.18 12.14h1.35a.86.86 0 0 1 .85.56c.33.78.71 1.53 1.1 2.28a10 10 0 0 0 1 1.6 2.15 2.15 0 0 0 .55.5.44.44 0 0 0 .71-.23 3.72 3.72 0 0 0 .2-1.1 8.09 8.09 0 0 0-.06-2.2 1.1 1.1 0 0 0-.49-.87 2.07 2.07 0 0 0-.49-.17c-.17 0-.19-.11-.08-.25a1.23 1.23 0 0 1 .82-.49 11.18 11.18 0 0 1 3.4 0c.57.09.72.32.79.9a14.58 14.58 0 0 1 0 1.93 14.67 14.67 0 0 0 0 1.92.88.88 0 0 0 .17.48.36.36 0 0 0 .56.06 4.88 4.88 0 0 0 1-1.18 16.9 16.9 0 0 0 1.69-3.24c.15-.38.32-.46.76-.46h3.19a1.19 1.19 0 0 1 .57.11.4.4 0 0 1 .24.38 2.19 2.19 0 0 1-.36 1.08 24.78 24.78 0 0 1-2 2.87c-.22.3-.44.59-.64.9a.85.85 0 0 0 .11 1.21c.42.44.87.85 1.3 1.27a9.2 9.2 0 0 1 1.44 1.76 1.16 1.16 0 0 1 .16.62.64.64 0 0 1-.61.57h-2.87a2.38 2.38 0 0 1-1.78-.73c-.47-.43-.85-.94-1.29-1.4a3.21 3.21 0 0 0-.38-.33.59.59 0 0 0-1 .19 2.2 2.2 0 0 0-.29 1.05v.44c-.06.48-.25.71-.73.72a8.48 8.48 0 0 1-2.9-.22 6.72 6.72 0 0 1-1.39-.63 8.46 8.46 0 0 1-2-1.58c-.39-.45-.75-.93-1.1-1.41a27.15 27.15 0 0 1-2.19-3.54C7 14.73 6.61 13.87 6.23 13c-.23-.53 0-.83.55-.84h1.4z" id="lYVSUK.tif"></path>
</svg>