<svg width="22" height="17" xmlns="http://www.w3.org/2000/svg" viewBox="0 0 22 17">
  <path d="M21.34 3.54l-1.1979 1.4097-3.1213-2.1213-3.1213 2.1213-3.1213-2.1213-3.1213 2.1213-3.1214-2.1213-3.1213 2.1213L0 3.54 4.5355 0 7.657 2.1213 10.7782 0l3.1213 2.1213L17.0208 0 21.34 3.54zm0 6l-1.1979 1.4097-3.1213-2.1213-3.1213 2.1213-3.1213-2.1213-3.1213 2.1213-3.1214-2.1213-3.1213 2.1213L0 9.54 4.5355 6 7.657 8.1213 10.7782 6l3.1213 2.1213L17.0208 6 21.34 9.54zm0 6l-1.1979 1.4097-3.1213-2.1213-3.1213 2.1213-3.1213-2.1213-3.1213 2.1213-3.1214-2.1213-3.1213 2.1213L0 15.54 4.5355 12l3.1214 2.1213L10.7782 12l3.1213 2.1213L17.0208 12l4.3192 3.54z" fill="#1A991A"/>
</svg>