<svg width="24" height="24" viewBox="0 0 24 24" xmlns="http://www.w3.org/2000/svg"><path d="M20.8 20.9v-5.2c0-.58.5-1.05 1.1-1.05.6 0 1.1.47 1.1 1.05V23H1v-7.37c0-.58.5-1.05 1.1-1.05.6 0 1.1.47 1.1 1.05v5.26h17.6z"/><path d="M16.81 10.6a1.13 1.13 0 0 1 1.55.16c.38.46.3 1.12-.17 1.48L12 16.98l-6.19-4.74a1.02 1.02 0 0 1-.17-1.48 1.13 1.13 0 0 1 1.55-.16L12 14.28l4.81-3.68z"/><path d="M10.9 13.53V4.05c0-.58.5-1.05 1.1-1.05.6 0 1.1.47 1.1 1.05v9.48c0 .58-.5 1.05-1.1 1.05-.6 0-1.1-.47-1.1-1.05z"/></svg>