<svg width="24" height="24" viewBox="0 0 24 24" xmlns="http://www.w3.org/2000/svg"><g fill="none" fill-rule="evenodd"><path d="M18.16 2A2.85 2.85 0 0 1 21 4.86a2.85 2.85 0 0 1-2.84 2.85 2.85 2.85 0 0 1-2.84-2.85A2.85 2.85 0 0 1 18.16 2" fill="#FFA715"/><path d="M13.41 18.67a1.4 1.4 0 0 1-1.39 1.42H12a1.42 1.42 0 0 1 0-2.85c.78 0 1.41.64 1.41 1.42zm6.77-4.87a5.8 5.8 0 0 0-1.42-1.18V9.56c-.2.02-.4.06-.6.06a4.75 4.75 0 0 1-4.02-7.25 6.77 6.77 0 0 0-8.9 6.56v3.69a6 6 0 0 0-1.42 1.18A3.6 3.6 0 0 0 3 16.1c.1.52.46.95.95 1.14h5.07A3.33 3.33 0 0 0 12 22a3.33 3.33 0 0 0 2.98-4.76h5.07c.49-.2.85-.62.95-1.14 0-.84-.3-1.65-.82-2.3z" fill="#1A991A"/></g></svg>