<svg width="14" height="24" xmlns="http://www.w3.org/2000/svg" viewBox="0 0 14 25">
  <g transform="translate(1 1)" stroke="#1A991A" fill="none" fill-rule="evenodd">
    <path d="M6 22.4542c.1008-.1232.205-.252.3121-.3864.8014-1.004 1.603-2.0996 2.3497-3.2473 1.2154-1.868 2.1617-3.686 2.735-5.3696.3968-1.1655.6032-2.2365.6032-3.1914C12 6.7943 9.3054 4 6 4s-6 2.7943-6 6.2595c0 .9549.2064 2.0259.6033 3.1914.5732 1.6835 1.5195 3.5016 2.735 5.3696.7466 1.1477 1.5482 2.2432 2.3496 3.2473.1071.1343.2113.2632.3121.3864z" stroke-width="2"/>
    <rect stroke-width="2" x="4" width="4" height="4" rx="2"/>
    <path d="M2 17c3.9787-.5725 6.9787-2.5725 9-6M0 12c5.154-.4719 8.8207-2.4719 11-6"/>
  </g>
</svg>