<svg width="24" height="24" viewBox="0 0 24 24" xmlns="http://www.w3.org/2000/svg"><path d="M15.2 18.4V16h2.04v2.4c0 1.43-1.2 2.6-2.65 2.6H6.65A2.63 2.63 0 0 1 4 18.4V5.6C4 4.17 5.19 3 6.65 3h7.94a2.63 2.63 0 0 1 2.65 2.6V8H15.2V5.6c0-.32-.28-.6-.61-.6H6.65a.61.61 0 0 0-.61.6v12.8c0 .33.28.6.6.6h7.95a.6.6 0 0 0 .6-.6zm6.74-6.05l-.05.1-.05.1-1.58 2.4a.98.98 0 0 1-1.37.28 1 1 0 0 1-.27-1.38l.56-.85H12.8a1 1 0 0 1-1-1 1 1 0 0 1 1-1h6.37l-.56-.85a1 1 0 0 1 .27-1.38.98.98 0 0 1 1.37.28l1.58 2.4.05.1.05.1a1 1 0 0 1 0 .7z" fill="#168E16" fill-rule="evenodd"/></svg>