<svg width="24" height="24" viewBox="0 0 24 24" xmlns="http://www.w3.org/2000/svg"><path d="M2 2v6.69a1 1 0 1 0 2 0V2a1 1 0 1 0-2 0z"/><path d="M4 11.69a1 1 0 1 0-2 0 1 1 0 0 0 2 0zm2 0a3 3 0 1 1-6 0 3 3 0 0 1 6 0z"/><path d="M2 14v8a1 1 0 0 0 2 0v-8a1 1 0 0 0-2 0zm9-12v11a1 1 0 0 0 2 0V2a1 1 0 0 0-2 0z"/><path d="M13 15.69a1 1 0 1 0-2 0 1 1 0 0 0 2 0zm2 0a3 3 0 1 1-6 0 3 3 0 0 1 6 0z"/><path d="M11 18v4a1 1 0 0 0 2 0v-4a1 1 0 0 0-2 0zm9-16v3a1 1 0 0 0 2 0V2a1 1 0 0 0-2 0z"/><path d="M22 7.69a1 1 0 1 0-2 0 1 1 0 0 0 2 0zm2 0a3 3 0 1 1-6 0 3 3 0 0 1 6 0z"/><path d="M20 10v12a1 1 0 0 0 2 0V10a1 1 0 0 0-2 0z"/></svg>