<svg width="24" height="24" viewBox="0 0 24 24" xmlns="http://www.w3.org/2000/svg"><path d="M10.16 21a.9.9 0 0 1-.92-.9l-.14-1.5a7.82 7.82 0 0 1-1.5-.85l-1.44.66a.9.9 0 0 1-.41.09.93.93 0 0 1-.78-.4l-1.85-3.18a.87.87 0 0 1 .29-1.18l1.3-.9a7.03 7.03 0 0 1 0-1.7l-1.3-.89a.87.87 0 0 1-.27-1.2l1.82-3.12a.94.94 0 0 1 .8-.45.9.9 0 0 1 .42.1l1.42.66c.47-.35.97-.63 1.51-.86l.14-1.56a.89.89 0 0 1 .92-.82h3.67c.49-.01.9.37.91.86l.14 1.52c.54.23 1.04.51 1.51.86l1.44-.67a.94.94 0 0 1 1.2.35l1.84 3.16c.24.4.11.93-.29 1.18l-1.3.89a6.9 6.9 0 0 1 0 1.7l1.3.9a.87.87 0 0 1 .27 1.2l-1.82 3.12a.95.95 0 0 1-1.21.33l-1.43-.65a8.3 8.3 0 0 1-1.5.86l-.15 1.53a.9.9 0 0 1-.91.86h-3.68zm2.75-1.8l.17-1.91.31-.09a5.58 5.58 0 0 0 2.51-1.4l.23-.23 1.77.8.91-1.54-1.59-1.12.1-.3c.25-.93.25-1.91 0-2.84l-.1-.3 1.6-1.1-.91-1.54-1.78.79-.22-.22a5.35 5.35 0 0 0-2.5-1.42l-.32-.08-.18-1.9h-1.82l-.18 1.9-.32.08C9.65 7 8.8 7.5 8.1 8.2l-.22.22-1.78-.79-.9 1.54 1.58 1.1-.08.3a5.24 5.24 0 0 0 0 2.84l.09.3-1.6 1.12.92 1.54 1.77-.8.23.22c.7.68 1.56 1.17 2.5 1.41l.32.09.17 1.9h1.82zM12 15.6a3.6 3.6 0 1 1 .13-7.2 3.6 3.6 0 0 1-.13 7.2zm0-5.4a1.8 1.8 0 1 0 .07 3.6 1.8 1.8 0 0 0-.07-3.6z" fill-rule="evenodd"/></svg>