<svg width="32" height="32" viewBox="0 0 32 32" xmlns="http://www.w3.org/2000/svg"><path d="M16 32a16 16 0 1 1 0-32 16 16 0 0 1 0 32zm.42-25c-.26 0-.51.08-.76.06a3 3 0 0 0-1.43.73c-.35.35-.6.78-.74 1.26a7.1 7.1 0 0 0-.26 2v1.88c0 .22-.02.22-.23.22h-1.9c-.24 0-.24.02-.24.23v2.87c0 .22.01.22.22.22h1.88c.27 0 .27 0 .27.27v9.25h3.61v-9.28c.01-.21.01-.21.21-.21h2.19c.16 0 .23-.04.23-.2l.31-2.91c.02-.21 0-.21-.19-.21h-2.5c-.23 0-.23-.01-.23-.23v-1.82c.07-.55.35-.82.93-.82h1.74c.23 0 .23-.01.23-.23V7h-3.34z" fill="#455895"/></svg>
