<svg width="32" height="32" viewBox="0 0 32 32" xmlns="http://www.w3.org/2000/svg"><path d="M16 32a16 16 0 1 1 0-32 16 16 0 0 1 0 32zM8.18 12.14v.02h-1.4c-.55.01-.78.31-.55.84.38.87.77 1.73 1.26 2.51a27.15 27.15 0 0 0 3.29 4.95 8.46 8.46 0 0 0 3.39 2.21 8.6 8.6 0 0 0 2.9.22c.48-.01.67-.24.73-.72v-.44c0-.37.1-.73.29-1.05a.59.59 0 0 1 1-.19 3 3 0 0 1 .38.33c.44.46.82.97 1.29 1.4.46.48 1.11.75 1.78.73h2.87a.64.64 0 0 0 .61-.57c0-.22-.05-.43-.16-.62A9.2 9.2 0 0 0 24.42 20c-.43-.42-.88-.83-1.3-1.27a.85.85 0 0 1-.11-1.21c.2-.31.42-.6.64-.9.73-.9 1.4-1.87 2-2.87.21-.32.34-.7.36-1.08a.4.4 0 0 0-.24-.38 1.19 1.19 0 0 0-.57-.11h-3.19c-.44 0-.61.08-.76.46a16.9 16.9 0 0 1-1.69 3.24c-.27.44-.6.84-1 1.18A.36.36 0 0 1 18 17a.88.88 0 0 1-.17-.48c-.04-.64-.04-1.28 0-1.92.04-.64.04-1.29 0-1.93-.07-.58-.22-.81-.79-.9a11.18 11.18 0 0 0-3.4 0c-.33.05-.62.22-.82.49-.11.14-.09.25.08.25.17.04.33.1.49.17.3.2.48.52.49.87a8.09 8.09 0 0 1-.14 3.3.44.44 0 0 1-.71.23c-.21-.13-.4-.3-.55-.5a10 10 0 0 1-1-1.6c-.39-.75-.77-1.5-1.1-2.28a.86.86 0 0 0-.85-.56H8.18z" fill="#5B7FA6"/></svg>