<svg width="120" height="120" viewBox="0 0 120 120" xmlns="http://www.w3.org/2000/svg"><g fill="none" fill-rule="evenodd"><path d="M63 54a5 5 0 0 1-10 0m51 50H70v12h6a2 2 0 0 1 0 4H40a2 2 0 0 1 0-4h6v-12H12a6 6 0 0 1-6-6V30a6 6 0 0 1 6-6h14V10A10 10 0 0 1 36 0h56a10 10 0 1 1 0 20h-2v4h14a6 6 0 0 1 6 6v68a6 6 0 0 1-6 6zm-38 12v-12H50v12h16zM98 10a6 6 0 0 0-6-6H44a9.98 9.98 0 0 1 0 12h48a6 6 0 0 0 6-6zm8 20a2 2 0 0 0-2-2H90v12a2 2 0 1 1-4 0V20H36a2 2 0 1 1 0-4 6 6 0 1 0-6-6v68a2 2 0 1 1-4 0V28H12a2 2 0 0 0-2 2v54h96V30zm0 58H10v10c0 1.1.9 2 2 2h92a2 2 0 0 0 2-2V88zM43 46a4 4 0 1 0 0-8 4 4 0 0 0 0 8zm30 0a4 4 0 1 0 0-8 4 4 0 0 0 0 8z" fill="#1A991A"/><path d="M90 43a24 24 0 1 1 0 48 24 24 0 0 1 0-48z" fill="#FFF"/><circle fill="#76BB33" cx="90" cy="67" r="20"/><path stroke="#FFF" stroke-width="4" d="M83 67l5 5 10-10"/></g></svg>