<svg width="120" height="120" viewBox="0 0 120 120" xmlns="http://www.w3.org/2000/svg" xmlns:xlink="http://www.w3.org/1999/xlink"><defs><path d="M30 0a10 10 0 0 0-10 10v14H6a6 6 0 0 0-6 6v68a6 6 0 0 0 6 6h34v12h-6a2 2 0 1 0 0 4h36a2 2 0 0 0 0-4h-6v-12h34a6 6 0 0 0 6-6V30a6 6 0 0 0-6-6H84v-4h2a10 10 0 0 0 0-20H30zm8 4h48a6 6 0 0 1 0 12H38a9.98 9.98 0 0 0 0-12zM24 78V10a6 6 0 1 1 6 6 2 2 0 0 0 0 4h50v20a2 2 0 1 0 4 0V28h14a2 2 0 0 1 2 2v54H4V30c0-1.1.9-2 2-2h14v50a2 2 0 0 0 4 0zM4 98V88h96v10a2 2 0 0 1-2 2H6a2 2 0 0 1-2-2zm40 18h16v-12H44v12z" id="a"/><path d="M0 24a24 24 0 1 0 48 0 24 24 0 0 0-48 0z" id="b"/><path d="M0 20a20 20 0 1 0 40 0 20 20 0 0 0-40 0z" id="c"/></defs><g fill="none" fill-rule="evenodd"><use fill="#CFD3D6" xlink:href="#a" transform="translate(6)"/><use fill="#FFF" xlink:href="#b" transform="translate(66 43)"/><use fill="#CFD3D6" xlink:href="#c" transform="translate(70 47)"/><path d="M40 42h6m24 0h6M66 58.66a8.81 8.81 0 0 0-8-5 8.81 8.81 0 0 0-8 5" stroke="#CFD3D6" stroke-width="4" stroke-linecap="round"/><path d="M78 55h24v24H78z"/><path d="M96.4 60L83 73.36M83 60l13.4 13.36" stroke="#FFF" stroke-width="4"/></g></svg>