<svg xmlns="http://www.w3.org/2000/svg" width="62" height="62" viewBox="22 21 62 62" xmlns:xlink="http://www.w3.org/1999/xlink">
    <defs>
        <path id="a" d="M31.166 61.959C14.193 61.959.385 48.15.385 31.178S14.194.397 31.166.397s30.781 13.809 30.781 30.781-13.809 30.781-30.781 30.781zm0-59.562c-15.87 0-28.781 12.911-28.781 28.781s12.911 28.781 28.781 28.781 28.781-12.911 28.781-28.781S47.036 2.397 31.166 2.397z"/>
        <mask id="y" width="61.562" height="61.562" x="0" y="0" fill="#fff">
            <use xlink:href="#a"/>
        </mask>
        <path id="b" d="M13.949 2.22H1.333c-.553 0-1-.448-1-1s.447-1 1-1h12.616c.553 0 1 .448 1 1s-.447 1-1 1z"/>
        <mask id="z" width="14.616" height="2" x="0" y="0" fill="#fff">
            <use xlink:href="#b"/>
        </mask>
        <path id="c" d="M13.949 2.97H1.333c-.553 0-1-.448-1-1s.447-1 1-1h12.616c.553 0 1 .448 1 1s-.447 1-1 1z"/>
        <mask id="A" width="14.616" height="2" x="0" y="0" fill="#fff">
            <use xlink:href="#c"/>
        </mask>
        <path id="d" d="M1 48.553c-.553 0-1-.448-1-1V1.22c0-.552.447-1 1-1 .553 0 1 .448 1 1v46.333c0 .552-.448 1-1 1z"/>
        <mask id="B" width="2" height="48.333" x="0" y="0" fill="#fff">
            <use xlink:href="#d"/>
        </mask>
        <path id="e" d="M1.75 21.893c-.553 0-1-.448-1-1V6.803C.75 1.9 3.986.433 5.697.343L16 .341c.553 0 1 .448 1 1s-.447 1-1 1H5.75c-.251.021-3 .341-3 4.462v14.09c0 .552-.448 1-1 1z"/>
        <mask id="C" width="16.25" height="21.552" x="0" y="0" fill="#fff">
            <use xlink:href="#e"/>
        </mask>
        <path id="f" d="M7.916 18.834h-6c-.523 0-.947-.424-.947-.947V.991c0-.523.424-.947.947-.947h6c.523 0 .947.424.947.947v16.895c0 .524-.424.948-.947.948zm-5.053-1.895h4.105v-15H2.863v15z"/>
        <mask id="D" width="7.894" height="18.79" x="0" y="0" fill="#fff">
            <use xlink:href="#f"/>
        </mask>
        <path id="g" d="M6.916 2.335H1.225c-.523 0-.948-.425-.948-.948 0-.523.425-.948.948-.948h5.691c.523 0 .948.425.948.948 0 .523-.425.948-.948.948z"/>
        <mask id="E" width="7.587" height="1.896" x="0" y="0" fill="#fff">
            <use xlink:href="#g"/>
        </mask>
        <path id="h" d="M6.916 1.986H1.225c-.523 0-.948-.425-.948-.948 0-.523.425-.948.948-.948h5.691c.523 0 .948.425.948.948 0 .523-.425.948-.948.948z"/>
        <mask id="F" width="7.587" height="1.896" x="0" y="0" fill="#fff">
            <use xlink:href="#h"/>
        </mask>
        <path id="i" d="M11 2.053H1.666c-.553 0-1-.448-1-1s.447-1 1-1H11c.553 0 1 .448 1 1s-.448 1-1 1z"/>
        <mask id="G" width="11.334" height="2" x="0" y="0" fill="#fff">
            <use xlink:href="#i"/>
        </mask>
        <path id="j" d="M16.25 22.637c-.553 0-1-.448-1-1V2.803H2.916v18.833c0 .552-.447 1-1 1-.553 0-1-.448-1-1V1.803c0-.552.447-1 1-1H16.25c.553 0 1 .448 1 1v19.833c0 .553-.448 1.001-1 1.001z"/>
        <mask id="H" width="16.334" height="21.834" x="0" y="0" fill="#fff">
            <use xlink:href="#j"/>
        </mask>
        <path id="k" d="M1.083 23.959c-.553 0-1-.448-1-1V1.803c0-.552.447-1 1-1 .553 0 1 .448 1 1v21.156c0 .553-.448 1-1 1z"/>
        <mask id="I" width="2" height="23.156" x="0" y="0" fill="#fff">
            <use xlink:href="#k"/>
        </mask>
        <path id="l" d="M1.083 7.22c-.553 0-1-.448-1-1V1.703c0-.552.447-1 1-1 .553 0 1 .448 1 1V6.22c0 .552-.448 1-1 1z"/>
        <mask id="J" width="2" height="6.517" x="0" y="0" fill="#fff">
            <use xlink:href="#l"/>
        </mask>
        <path id="m" d="M14 2.22H1.384c-.553 0-1-.448-1-1s.447-1 1-1H14c.553 0 1 .448 1 1s-.448 1-1 1z"/>
        <mask id="K" width="14.616" height="2" x="0" y="0" fill="#fff">
            <use xlink:href="#m"/>
        </mask>
        <path id="n" d="M14 2.97H1.384c-.553 0-1-.448-1-1s.447-1 1-1H14c.553 0 1 .448 1 1s-.448 1-1 1z"/>
        <mask id="L" width="14.616" height="2" x="0" y="0" fill="#fff">
            <use xlink:href="#n"/>
        </mask>
        <path id="o" d="M1.333 48.553c-.553 0-1-.448-1-1V1.22c0-.552.447-1 1-1 .553 0 1 .448 1 1v46.333c0 .552-.448 1-1 1z"/>
        <mask id="M" width="2" height="48.333" x="0" y="0" fill="#fff">
            <use xlink:href="#o"/>
        </mask>
        <path id="p" d="M15.583 21.893c-.553 0-1-.448-1-1V6.803c0-4.252-2.929-4.457-3.053-4.463l-10.197.001c-.553 0-1-.448-1-1s.447-1 1-1h10.25c1.764.092 5 1.559 5 6.462v14.09c0 .552-.448 1-1 1z"/>
        <mask id="N" width="16.25" height="21.552" x="0" y="0" fill="#fff">
            <use xlink:href="#p"/>
        </mask>
        <path id="q" d="M7.416 18.834h-6c-.523 0-.947-.424-.947-.947V.991c0-.523.424-.947.947-.947h6c.523 0 .947.424.947.947v16.895c0 .524-.424.948-.947.948zm-5.053-1.895h4.105v-15H2.363v15z"/>
        <mask id="O" width="7.894" height="18.79" x="0" y="0" fill="#fff">
            <use xlink:href="#q"/>
        </mask>
        <path id="r" d="M7.182 2.322H1.64c-.517 0-.936-.419-.936-.936 0-.517.419-.936.936-.936h5.542c.517 0 .936.419.936.936 0 .517-.419.936-.936.936z"/>
        <mask id="P" width="7.414" height="1.872" x="0" y="0" fill="#fff">
            <use xlink:href="#r"/>
        </mask>
        <path id="s" d="M7.182 1.973H1.64c-.517 0-.936-.419-.936-.936 0-.517.419-.936.936-.936h5.542c.517 0 .936.419.936.936 0 .517-.419.936-.936.936z"/>
        <mask id="Q" width="7.414" height="1.872" x="0" y="0" fill="#fff">
            <use xlink:href="#s"/>
        </mask>
        <path id="t" d="M10.666 2.053H1.333c-.553 0-1-.448-1-1s.447-1 1-1h9.333c.553 0 1 .448 1 1s-.448 1-1 1z"/>
        <mask id="R" width="11.333" height="2" x="0" y="0" fill="#fff">
            <use xlink:href="#t"/>
        </mask>
        <path id="u" d="M23 41.178h1.917v1.917H23z"/>
        <mask id="S" width="1.917" height="1.917" x="0" y="0" fill="#fff">
            <use xlink:href="#u"/>
        </mask>
        <path id="v" d="M29 41.178h1.917v1.917H29z"/>
        <mask id="T" width="1.917" height="1.917" x="0" y="0" fill="#fff">
            <use xlink:href="#v"/>
        </mask>
        <path id="w" d="M12.253 1.347c-.579-.394-1.217-.706-1.895-.931L5.332 4.399 2.471 2.33c-.468.478-.872 1.017-1.203 1.604l4.037 2.919 6.948-5.506z"/>
        <mask id="U" width="10.985" height="6.437" x="0" y="0" fill="#fff">
            <use xlink:href="#w"/>
        </mask>
        <path id="x" d="M13.763 2.702L5.36 9.361.512 5.855c-.145.589-.23 1.201-.23 1.835 0 4.234 3.432 7.667 7.667 7.667 4.234 0 7.667-3.432 7.667-7.667-.001-1.906-.701-3.647-1.853-4.988z"/>
        <mask id="V" width="15.334" height="12.655" x="0" y="0" fill="#fff">
            <use xlink:href="#x"/>
        </mask>
    </defs>
    <g fill="none" fill-rule="evenodd" stroke-width="2">
        <use mask="url(#y)" xlink:href="#a" transform="translate(22 21)"/>
        <g transform="translate(26 27)">
            <use mask="url(#z)" xlink:href="#b" transform="translate(13 5)"/>
            <use mask="url(#A)" xlink:href="#c" transform="translate(13 8)"/>
            <use mask="url(#B)" xlink:href="#d" transform="translate(15 5)"/>
            <use mask="url(#C)" xlink:href="#e" transform="translate(0 19)"/>
            <use mask="url(#D)" xlink:href="#f" transform="translate(4 24)"/>
            <use mask="url(#E)" xlink:href="#g" transform="translate(5 29)"/>
            <use mask="url(#F)" xlink:href="#h" transform="translate(5 35)"/>
            <use mask="url(#G)" xlink:href="#i" transform="translate(5 45)"/>
            <use mask="url(#H)" xlink:href="#j" transform="translate(18 32)"/>
            <use mask="url(#I)" xlink:href="#k" transform="translate(26 32)"/>
            <use mask="url(#J)" xlink:href="#l" transform="translate(26)"/>
            <use mask="url(#K)" xlink:href="#m" transform="translate(26 5)"/>
            <use mask="url(#L)" xlink:href="#n" transform="translate(26 8)"/>
            <use mask="url(#M)" xlink:href="#o" transform="translate(37 5)"/>
            <use mask="url(#N)" xlink:href="#p" transform="translate(37 19)"/>
            <use mask="url(#O)" xlink:href="#q" transform="translate(41 24)"/>
            <use mask="url(#P)" xlink:href="#r" transform="translate(41 29)"/>
            <use mask="url(#Q)" xlink:href="#s" transform="translate(41 35)"/>
            <use mask="url(#R)" xlink:href="#t" transform="translate(37 45)"/>
            <use mask="url(#S)" xlink:href="#u"/>
            <use mask="url(#T)" xlink:href="#v"/>
            <g transform="translate(19 14)">
                <use class="color-grandis _stroke" stroke-width="2" mask="url(#U)" xlink:href="#w"/>
                <use class="color-grandis" mask="url(#V)" xlink:href="#x"/>
            </g>
        </g>
    </g>
</svg>