<svg xmlns="http://www.w3.org/2000/svg" viewBox="0 0 60 66.25"><defs><style>.ic_relations_cls-1{fill:#fff;opacity:0;}.ic_relations_cls-2{fill:#00703c;}.ic_relations_cls-3{fill:#dbf1e4;}</style></defs><title>Asset 94</title><g id="Layer_2" data-name="Layer 2"><g id="Layer_1-2" data-name="Layer 1"><rect class="ic_relations_cls-1" y="3.75" width="60" height="60"/><path class="ic_relations_cls-2" d="M30,30.75a1,1,0,0,0-1,1v5a1,1,0,0,0,2,0v-5A1,1,0,0,0,30,30.75Z"/><rect class="ic_relations_cls-2" x="22" y="41.75" width="5" height="2" transform="translate(-23.05 29.84) rotate(-45)"/><rect class="ic_relations_cls-2" x="34.5" y="40.25" width="2" height="5" transform="translate(-19.83 37.62) rotate(-45)"/><path class="ic_relations_cls-2" d="M60,50.27a6.44,6.44,0,0,0-4.68-6.52,5.2,5.2,0,0,0,.7-2.87A3.58,3.58,0,0,0,55,38.19a4.33,4.33,0,0,0-2.35-1.08.81.81,0,0,0-.36-.11A4.8,4.8,0,0,0,49,38.15,3.59,3.59,0,0,0,48,40.84a5.2,5.2,0,0,0,.7,2.87A6.44,6.44,0,0,0,44,50.23s0,1,0,2.68a3.35,3.35,0,0,0,3.56,3.56h0V63.3c0,1.07.86,2.94,2.65,2.94A2.29,2.29,0,0,0,52,65.46a2.29,2.29,0,0,0,1.77.79c1.79,0,2.62-1.88,2.65-2.94v-6.8h0A3.35,3.35,0,0,0,60,53C60,51.23,60,50.27,60,50.27ZM58.22,53c-.14.4,0,1.78-1.78,1.78h0v-5c0-.46-.37-.42-.82-.42s-.82,0-.82.42l-.11,13.8a.87.87,0,0,1-.89.89.93.93,0,0,1-1-.85c0-.13,0-.25,0-.36V56.48a.82.82,0,0,0-.82-.82h-.09a.82.82,0,0,0-.82.82s0,7,0,7.14a.92.92,0,0,1-.94.85.79.79,0,0,1-.89-.89V49.36h-.89c-.46,0-.88,0-.88.42v4.91h0c-1.78,0-1.63-1.38-1.78-1.78V50c0-4.62,4.71-4.92,4.93-4.93a.82.82,0,0,0,.07-1.64s-1.13-.24-1.13-2.54a2,2,0,0,1,.54-1.5,2.75,2.75,0,0,1,1.55-.66h.09a3.12,3.12,0,0,1,2,.69,2,2,0,0,1,.54,1.5c0,2.3-1.12,2.54-1.13,2.54a.82.82,0,0,0,.07,1.64c.22,0,4.93.31,4.93,4.93Z"/><path class="ic_relations_cls-2" d="M11.31,43.75a5.2,5.2,0,0,0,.7-2.87A3.58,3.58,0,0,0,11,38.19a4.33,4.33,0,0,0-2.35-1.08A.81.81,0,0,0,8.24,37,4.8,4.8,0,0,0,5,38.15,3.59,3.59,0,0,0,4,40.84a5.2,5.2,0,0,0,.7,2.87A6.44,6.44,0,0,0,0,50.23s0,1,0,2.68a3.35,3.35,0,0,0,3.56,3.56h0V63.3c0,1.07.86,2.94,2.65,2.94A2.29,2.29,0,0,0,8,65.46a2.29,2.29,0,0,0,1.77.79c1.79,0,2.62-1.88,2.65-2.94v-6.8h0A3.35,3.35,0,0,0,16,53c0-1.73,0-2.68,0-2.68A6.44,6.44,0,0,0,11.31,43.75ZM14.22,53c-.14.4,0,1.78-1.78,1.78h0v-5c0-.46-.37-.42-.82-.42s-.82,0-.82.42l.23,14a1.21,1.21,0,0,1-1.22.72.93.93,0,0,1-1-.85c0-.13,0-.25,0-.36V56.48A.82.82,0,0,0,8,55.66H7.95a.82.82,0,0,0-.82.82s0,7,0,7.14a.92.92,0,0,1-.94.85.79.79,0,0,1-.89-.89V49.36H4.44c-.46,0-.88,0-.88.42v4.91h0c-1.78,0-1.63-1.38-1.78-1.78V50C1.78,45.34,6.49,45,6.71,45a.82.82,0,0,0,.07-1.64s-1.13-.24-1.13-2.54a2,2,0,0,1,.54-1.5,2.75,2.75,0,0,1,1.55-.66h.09a3.12,3.12,0,0,1,2,.69,2,2,0,0,1,.54,1.5c0,2.3-1.12,2.54-1.13,2.54a.82.82,0,0,0,.07,1.64c.22,0,4.93.31,4.93,4.93Z"/><path class="ic_relations_cls-2" d="M33.31,6.75A5.2,5.2,0,0,0,34,3.88,3.58,3.58,0,0,0,33,1.19,4.33,4.33,0,0,0,30.61.11.81.81,0,0,0,30.24,0,4.8,4.8,0,0,0,27,1.15,3.59,3.59,0,0,0,26,3.84a5.2,5.2,0,0,0,.7,2.87A6.44,6.44,0,0,0,22,13.23s0,1,0,2.68a3.35,3.35,0,0,0,3.56,3.56h0V26.3c0,1.07.86,2.94,2.65,2.94A2.29,2.29,0,0,0,30,28.46a2.29,2.29,0,0,0,1.77.79c1.79,0,2.62-1.88,2.65-2.94v-6.8h0A3.35,3.35,0,0,0,38,16c0-1.73,0-2.68,0-2.68A6.44,6.44,0,0,0,33.31,6.75ZM36.22,16c-.14.4,0,1.78-1.78,1.78h0v-5c0-.46-.37-.42-.82-.42s-.82,0-.82.42l-.11,13.8a.87.87,0,0,1-.89.89.93.93,0,0,1-1-.85c0-.13,0-.25,0-.36V19.48a.82.82,0,0,0-.82-.82h-.09a.82.82,0,0,0-.82.82s0,7,0,7.14a.92.92,0,0,1-.94.85.79.79,0,0,1-.89-.89V12.36h-.89c-.46,0-.88,0-.88.42v4.91h0c-1.78,0-1.63-1.38-1.78-1.78V13C23.78,8.34,28.49,8,28.71,8a.82.82,0,0,0,.07-1.64s-1.13-.24-1.13-2.54a2,2,0,0,1,.54-1.5,2.75,2.75,0,0,1,1.55-.66h.09a3.12,3.12,0,0,1,2,.69,2,2,0,0,1,.54,1.5c0,2.3-1.12,2.54-1.13,2.54a.82.82,0,0,0,.07,1.64c.22,0,4.93.31,4.93,4.93Z"/><path class="ic_relations_cls-3" d="M42,49.75a11.66,11.66,0,0,1,.55-3.8,15,15,0,0,1-25.1,0,11.66,11.66,0,0,1,.55,3.8v5a7.4,7.4,0,0,1-1.51,2.83,23.94,23.94,0,0,0,27,0A7.4,7.4,0,0,1,42,54.75Z"/><path class="ic_relations_cls-3" d="M24,24V21.24a6.53,6.53,0,0,1-4-5.3A24,24,0,0,0,6.19,34.75H8s6,1,6,5v3A3.47,3.47,0,0,1,16.39,44,14.95,14.95,0,0,1,24,24Z"/><path class="ic_relations_cls-3" d="M40,15.94a6.53,6.53,0,0,1-4,5.3V24a14.95,14.95,0,0,1,7.61,20A3.47,3.47,0,0,1,46,42.75v-3c0-4,6-5,6-5h1.81A24,24,0,0,0,40,15.94Z"/></g></g></svg>