<svg xmlns="http://www.w3.org/2000/svg" viewBox="0 0 60 60"><defs><style>.ic_docs2_cls-1,.ic_docs2_cls-2{fill:#fff;}.ic_docs2_cls-1{opacity:0;}</style></defs><title>Asset 103</title><g id="Layer_2" data-name="Layer 2"><g id="Layer_1-2" data-name="Layer 1"><rect class="ic_docs2_cls-1" width="60" height="60"/><path class="ic_docs2_cls-2" d="M21.63,17l-4,3.2-2.3-1.66a6.18,6.18,0,0,0-1,1.29l3.24,2.34,5.58-4.42A6.14,6.14,0,0,0,21.63,17Z"/><path class="ic_docs2_cls-2" d="M17.61,24.18l-3.89-2.82a6.16,6.16,0,1,0,10.64-2.53Z"/><path class="ic_docs2_cls-3" d="M40.44,4H18a3.64,3.64,0,0,0-4,4V9h2V8c0-1.44.56-2,2-2H39v8a3.64,3.64,0,0,0,4,4h7V46c0,1.44-.56,2-2,2v2a3.64,3.64,0,0,0,4-4V16.61ZM41,14V7.57L48.73,16H43C41.56,16,41,15.44,41,14Z"/><path class="ic_docs2_cls-2" d="M33.44,11H11a3.64,3.64,0,0,0-4,4V53a3.64,3.64,0,0,0,4,4H41a3.64,3.64,0,0,0,4-4V23.61ZM34,14.57,41.73,23H36c-1.44,0-2-.56-2-2ZM41,55H11c-1.44,0-2-.56-2-2V15c0-1.44.56-2,2-2H32v8a3.64,3.64,0,0,0,4,4h7V53C43,54.44,42.44,55,41,55Z"/><rect class="ic_docs2_cls-2" x="14" y="37" width="24" height="2"/><rect class="ic_docs2_cls-2" x="14" y="42" width="24" height="2"/><rect class="ic_docs2_cls-2" x="14" y="47" width="24" height="2"/></g></g></svg>