<svg xmlns="http://www.w3.org/2000/svg" viewBox="0 0 60 60"><defs><style>.ic_rise_cls-1{fill:#fff;opacity:0;}.ic_rise_cls-2{fill:#dbf1e4;}.ic_rise_cls-3{fill:#00703c;}</style></defs><title>Asset 96</title><g id="Layer_2" data-name="Layer 2"><g id="Layer_1-2" data-name="Layer 1"><rect class="ic_rise_cls-1" width="60" height="60"/><path class="ic_rise_cls-2" d="M12.07,42.85a21.59,21.59,0,1,1,35.81,0L53,50A30,30,0,1,0,7,50Z"/><path class="ic_rise_cls-3" d="M31,17a1,1,0,0,0,1-1V2a1,1,0,0,0-2,0V16A1,1,0,0,0,31,17Z"/><path class="ic_rise_cls-3" d="M40,26a1,1,0,0,0,.51-.14l15-9a1,1,0,0,0-1-1.71l-15,9A1,1,0,0,0,40,26Z"/><path class="ic_rise_cls-3" d="M1,32H19a1,1,0,0,0,0-2H1a1,1,0,0,0,0,2Z"/><path class="ic_rise_cls-3" d="M23,34.14,14.18,48H19v8c0,1.44-.56,2-2,2H1a1,1,0,0,0,0,2H17a3.64,3.64,0,0,0,4-4V46H17.82L23,37.86,28.18,46H25V59a1,1,0,0,0,2,0V48h4.82Z"/><path class="ic_rise_cls-3" d="M59,58H44c-1.44,0-2-.56-2-2h4.82L38,42.14,29.18,56H34v3a1,1,0,0,0,2,0V54H32.82L38,45.86,43.18,54H40v2a3.64,3.64,0,0,0,4,4H59a1,1,0,0,0,0-2Z"/><path class="ic_rise_cls-3" d="M27,37a1,1,0,0,0,2,0V31H25.82L31,22.86,36.18,31H33V43a1,1,0,0,0,2,0V33h4.82L31,19.14,22.18,33H27Z"/></g></g></svg>