<svg width="60" height="60" viewBox="0 0 60 60" xmlns="http://www.w3.org/2000/svg"><path d="M28.96 40.32c-1.8.89-3.73 1.48-5.72 1.73l-.62.03-.21.53c-.58 1.44-2.63 4.06-9.84 5.57 0 0-.08 0-.12-.07a.17.17 0 0 1 0-.22 26.38 26.38 0 0 0 4.05-4.91l.67-1.11-1.26-.36A18.8 18.8 0 0 1 2.46 23.17C2.53 13.35 10.33 5 19.9 4.51a18.39 18.39 0 0 1 16.77 9.03l1.7-.98A20.39 20.39 0 0 0 19.78 2.52C9.23 3.1.57 12.36.49 23.15a20.82 20.82 0 0 0 13.72 19.83 26.29 26.29 0 0 1-3.04 3.52c-.67.67-.81 1.7-.35 2.53.35.67 1.03 1.1 1.79 1.11.14.02.29.02.43 0 7.07-1.47 9.9-4.1 10.99-6.22a20 20 0 0 0 5.8-1.85l-.87-1.75z"/><path d="M32.74 36.67a14.8 14.8 0 0 1-2.1 1.83l1.05 1.67c.88-.62 1.7-1.33 2.45-2.1l-1.4-1.4z"/><path d="M59.02 34.08c-.07-9.58-7.59-17.8-16.72-18.33a17.18 17.18 0 0 0-12.85 4.75 18.87 18.87 0 0 0-5.84 13.72c0 1.6.19 3.18.58 4.73l1.9-.48a17.28 17.28 0 0 1-.52-4.25 16.9 16.9 0 0 1 5.2-12.26 15.29 15.29 0 0 1 11.4-4.24c8.14.47 14.82 7.86 14.88 16.38a16.4 16.4 0 0 1-11.58 16.04l-1.2.33.65 1.1c1 1.65 2.24 3.15 3.66 4.47-6.22-1.31-7.97-3.6-8.47-4.85l-.21-.54-.56-.08a15.5 15.5 0 0 1-10.32-6.1l-1.57 1.19a17.48 17.48 0 0 0 11.1 6.78c.98 1.9 3.48 4.22 9.65 5.51h.39c.7 0 1.33-.37 1.66-.98.42-.77.28-1.72-.34-2.34a23.32 23.32 0 0 1-2.62-3.06 18.46 18.46 0 0 0 11.73-17.5zM23.05 19.57c0-2.6-1.97-3.93-4.92-3.93-.87 0-1.73.11-2.56.34v2.1a8.7 8.7 0 0 1 1.97-.3c1.58 0 2.74.73 2.74 2.13 0 2.49-3.59 2.9-3.59 5.82 0 .37.05.74.13 1.1h2.1a2.09 2.09 0 0 1-.07-.58c.08-2.64 4.2-2.99 4.2-6.68zM16.4 30.2a1.6 1.6 0 1 0 1.6-1.54 1.52 1.52 0 0 0-1.6 1.54z"/><path d="M42.97 37.65l.5-10.93h-3.1l.5 10.93zm-1.06 4.89A1.53 1.53 0 1 0 40.33 41a1.51 1.51 0 0 0 1.58 1.54z"/></svg>