<svg width="60" height="60" viewBox="0 0 60 60" xmlns="http://www.w3.org/2000/svg"><g fill="none" fill-rule="evenodd"><path d="M39 1v13h13v-1L40 1h-1zm2 3.83L48.17 12H41V4.83z" fill="#1A991A"/><path d="M24 15h12m-19 6h26m-26 6h26" stroke="#1A991A" stroke-width="2" stroke-linecap="round"/><path d="M31 43v16l5.75-1.98L43 59V43H31zm2 1.99h8v11.3l-3.64-1.17-.64-.2-.63.22L33 56.21V44.99z" fill="#1A991A"/><path d="M8 1v54h25v-8h8v8h11V13L40 1H8zm2 2h29.17L50 13.83V53h-7v-8H31v8H10V3z" fill="#1A991A"/><path d="M47 42.13c0 1.27-1.34 2.28-1.8 3.39-.48 1.15-.26 2.8-1.13 3.68-.87.86-2.52.64-3.67 1.12-1.12.46-2.12 1.8-3.4 1.8-1.28 0-2.28-1.34-3.4-1.8-1.15-.48-2.8-.26-3.67-1.12-.87-.87-.65-2.53-1.13-3.68-.46-1.11-1.8-2.12-1.8-3.4 0-1.27 1.34-2.28 1.8-3.39.48-1.15.26-2.8 1.13-3.68.87-.86 2.52-.64 3.67-1.12 1.12-.46 2.12-1.8 3.4-1.8 1.28 0 2.28 1.34 3.4 1.8 1.15.48 2.8.26 3.67 1.12.87.87.65 2.53 1.13 3.68.46 1.11 1.8 2.12 1.8 3.4" fill="#76BB33"/></g></svg>