<svg width="60" height="60" viewBox="0 0 60 60" xmlns="http://www.w3.org/2000/svg"><path d="M38 37.07v-3.1a.8.8 0 0 0-.06-.3 32.9 32.9 0 0 0 3.19-6.82L44 25.58a1 1 0 0 0 .55-.65s.69-2.62.92-3.42a3.15 3.15 0 0 0-.82-2.61 1 1 0 0 0-.65-.32v-5.65a12.9 12.9 0 0 0-3.8-9.14A13.04 13.04 0 0 0 31 0h-2c-7.18 0-13 5.79-13 12.93v5.59h-.19a1 1 0 0 0-.75.34 3.15 3.15 0 0 0-.79 2.64c.23.8.92 3.42.92 3.42a1 1 0 0 0 .55.65l2.84 1.28c.87 2.62 2.09 5.1 3.62 7.4v2.79C18.42 37.94 3 41.98 3 49.9V59a1 1 0 0 0 1 1 1 1 0 0 0 1-1v-9.1c0-5.04 9.35-8.68 15.38-10.34a9.09 9.09 0 0 0 9.21 7.32c7.27 0 9.15-6.22 9.46-7.52C45 40.92 55 44.66 55 49.91V59a1 1 0 0 0 1 .99 1 1 0 0 0 1-1v-9.1c0-7.92-15.25-11.96-19-12.83zM18 12.93c0-6.04 4.92-10.94 11-10.94h2c6.08 0 11 4.9 11 10.94v5.59h-1.06l-2.32-4.72a1 1 0 0 0-.9-.55h-4.93c-.8.07-3.13 0-4.29-1a2.32 2.32 0 0 1-.73-1.83 1 1 0 0 0-1-1c-5.58-.15-6.65 3.22-6.69 3.36a.99.99 0 0 0 0 .26L20 16.06l-1.24 2.46H18v-5.6zm2.34 12.93a1 1 0 0 0-.53-.6L17 23.96c-.21-.79-.64-2.4-.81-2.98a.7.7 0 0 1 .1-.35 1 1 0 0 0 .71.26 1 1 0 0 0 .77-.38h1.62a1 1 0 0 0 .89-.55l1.61-3.21c.07-.13.1-.28.11-.43l.05-3.08c.18-.38 1-1.66 3.81-1.83.17.88.62 1.7 1.3 2.3 2.05 1.85 5.66 1.54 5.72 1.53h4.22l2.32 4.71a1 1 0 0 0 .9.56h1.91c.29.38.83.49 1.24.24.02.06.02.14 0 .2l-.81 2.99-2.8 1.3a1 1 0 0 0-.53.59c-1 2.98-3.21 8-5.09 8.79a8.58 8.58 0 0 1-4.59.88 8.57 8.57 0 0 1-4.25-.85c-1.85-.84-4.09-5.8-5.06-8.8zm9.25 19.03a7.12 7.12 0 0 1-7.26-5.82l1.06-.28a1 1 0 0 0 .8-1v-1.55a10.66 10.66 0 0 0 5.67 1.23 11.84 11.84 0 0 0 5.2-1c.34-.14.65-.33.94-.57v2a1 1 0 0 0 .8.99l.32.07a7.44 7.44 0 0 1-7.53 5.93zM13 51.72a1 1 0 0 0-1 .99v5.97a1 1 0 0 0 1 1 1 1 0 0 0 1-1V52.7a1 1 0 0 0-1-1zm34 0a1 1 0 0 0-1 .99v5.97a1 1 0 0 0 1 1 1 1 0 0 0 1-1V52.7a1 1 0 0 0-1-1z" fill-rule="evenodd"/></svg>