<svg width="60" height="60" viewBox="0 0 60 60" xmlns="http://www.w3.org/2000/svg"><path d="M53.6 9.5l-.1-.9h-.89C35.68 8.6 31.1 1.46 31.1 1.36L30.24 0l-.87 1.32c0 .07-4.96 7.29-21.98 7.29h-.9l-.09.9c-4 41.92 23.26 50.29 23.52 50.41l.28.08.28-.08c.27-.12 27.11-8.49 23.11-50.41zM30.2 57.88C27.43 56.92 5.11 47.86 8.28 10.6c13.77-.2 19.84-5 21.88-7.15 1.98 2.2 7.82 6.94 21.53 7.15 3.2 37.17-18.76 46.32-21.49 47.27zm-.1-37.98a6.03 6.03 0 0 0-2.98 11.2v7.81h5.96V31.1a6.03 6.03 0 0 0-2.98-11.2zm1.98 9.46l-.99.54v7.01h-1.98v-7l-1-.59a4.02 4.02 0 0 1 2-7.47 4.02 4.02 0 0 1 1.98 7.47v.04z" fill-rule="evenodd"/></svg>