<svg width="40" height="40" viewBox="0 0 40 40" xmlns="http://www.w3.org/2000/svg" xmlns:xlink="http://www.w3.org/1999/xlink"><defs><path id="a" d="M20 20V0h20v40H0v-5z"/></defs><g fill="none" fill-rule="evenodd"><path d="M21.11 20.68l5.99-5.97-1.41-1.42-6 5.98-5.98-5.98-1.42 1.42 5.99 5.97-5.99 5.97 1.42 1.41 5.99-5.97 5.99 5.97 1.4-1.41-5.98-5.97z" fill="#FF5872" fill-rule="nonzero"/><path d="M20 38a18 18 0 1 0 0-36 18 18 0 0 0 0 36zm0 2a20 20 0 1 1 0-40 20 20 0 0 1 0 40z" fill="#C3CCD1" fill-rule="nonzero"/><mask id="b" fill="#fff"><use xlink:href="#a"/></mask><path d="M20 38a18 18 0 1 0 0-36 18 18 0 0 0 0 36zm0 2a20 20 0 1 1 0-40 20 20 0 0 1 0 40z" fill="#FF5872" fill-rule="nonzero" mask="url(#b)"/></g></svg>