<svg width="30" height="40" viewBox="0 0 30 40" xmlns="http://www.w3.org/2000/svg"><g fill="none" fill-rule="evenodd"><path d="M21 .67v8.66h8.67v-.66l-8-8H21zm1.33 2.55L27.11 8h-4.78V3.22z" fill="#1A991A" fill-rule="nonzero"/><path d="M11 10h8M6.33 14h17.34M6.33 18h17.34" stroke="#1A991A" stroke-width="2" stroke-linecap="round"/><path d="M15.67 28.67v10.66l3.83-1.32 4.17 1.32V28.67h-8zM17 29.99h5.33v7.54l-2.42-.78-.43-.14-.42.15-2.06.71V30z" fill="#1A991A" fill-rule="nonzero"/><path d="M.33.67v36H17v-5.34h5.33v5.34h7.34v-28l-8-8H.33zM1.67 2H21.1l7.22 7.22v26.11h-4.66V30h-8v5.33h-14V2z" fill="#1A991A" fill-rule="nonzero"/><path d="M26.33 28.09c0 .84-.89 1.52-1.2 2.26-.32.76-.17 1.86-.75 2.45-.58.57-1.68.43-2.45.75-.74.3-1.41 1.2-2.26 1.2-.86 0-1.52-.9-2.27-1.2-.77-.32-1.87-.18-2.45-.75-.58-.58-.43-1.69-.75-2.45-.3-.74-1.2-1.42-1.2-2.27 0-.85.9-1.52 1.2-2.26.32-.77.17-1.87.75-2.45.58-.58 1.68-.43 2.45-.75.75-.3 1.41-1.2 2.27-1.2.85 0 1.52.9 2.26 1.2.77.32 1.87.17 2.45.75.58.58.43 1.68.75 2.45.31.74 1.2 1.41 1.2 2.27" fill="#76BB33" fill-rule="nonzero"/></g></svg>