<svg width="40" height="40" viewBox="0 0 40 40" xmlns="http://www.w3.org/2000/svg"><path stroke="none" fill="#00703c" d="M34.43 10.48c1.18 0 2.14.96 2.14 2.15v21.54c0 1.18-.96 2.14-2.14 2.14H5.57a2.15 2.15 0 0 1-2.14-2.14V12.63c0-1.19.96-2.15 2.14-2.15h28.86zm0 2H5.57a.15.15 0 0 0-.14.15v21.54c0 .07.06.14.14.14h28.86c.07 0 .14-.07.14-.14V12.63a.15.15 0 0 0-.14-.15z"/><path stroke="none" fill="#00703c" d="M17.64 19.94H4.43a1 1 0 1 0 0 2h13.2a1 1 0 0 0 0-2zm17.93 0h-13.2a1 1 0 1 0 0 2h13.2a1 1 0 0 0 0-2zm-20.48-8.46V7.94c0-.75.62-1.37 1.36-1.37h7.1c.74 0 1.36.62 1.36 1.37v3.54a1 1 0 0 0 2 0V7.94a3.37 3.37 0 0 0-3.36-3.37h-7.1a3.37 3.37 0 0 0-3.36 3.37v3.54a1 1 0 1 0 2 0z"/><path stroke="none" fill="#00703c" d="M21.36 19.76A1.37 1.37 0 0 0 20 18.39c-.75 0-1.36.62-1.36 1.37v3.55c0 .35.14.7.4.96a1.36 1.36 0 0 0 2.32-.96v-3.55zm2 0v3.55a3.37 3.37 0 0 1-6.72 0v-3.55a3.37 3.37 0 0 1 6.72 0z"/></svg>
