<svg width="40" height="40" viewBox="0 0 40 40" xmlns="http://www.w3.org/2000/svg"><path stroke="none" fill="#fff" d="M6.67 26.9l-.18.08c-.4.23-.94.67-1.48 1.32a6.16 6.16 0 0 0-1.44 4v4.45a1 1 0 0 0 2 0V32.3c0-1.08.37-1.98.99-2.73.33-.4.66-.68.87-.82l8.9-3.06a1 1 0 0 0 .67-.94V22.3a1 1 0 1 0-2 0v1.72L6.67 26.9zm27.08 2.67c.62.75.98 1.65.98 2.73v4.45a1 1 0 1 0 2 0V32.3c0-1.57-.54-2.91-1.44-4a5.94 5.94 0 0 0-1.48-1.32l-.18-.09-8.33-2.86v-1.72a1 1 0 1 0-2 0v2.44c0 .42.27.8.68.94l8.9 3.06c.2.14.53.42.87.82z"/><path stroke="none" fill="#fff" d="M12 14.05l.02.08v-.01l-.02-.07zm16.3.08v-.08a15.5 15.5 0 0 0 0 .08zm-11.54 10.1c-1.05-.45-1.93-1.63-2.8-3.37a24.7 24.7 0 0 1-1.14-2.72l-1.62-.75a1 1 0 0 1-.55-.66l-.1-.36a310.91 310.91 0 0 0-.47-1.77 1.68 1.68 0 0 1-.06-.42c-.01-.42.11-.8.32-1.16.11-.19.22-.33.3-.43a1 1 0 0 1 .76-.34h1.61l.63-1.26.03-1.82a1 1 0 0 1 .04-.27c.11-.38.4-.85.91-1.3a5.23 5.23 0 0 1 3.63-1.07 1 1 0 0 1 .98 1c0 .7.37 1.06 1.17 1.28a4.9 4.9 0 0 0 1.47.14l.17-.01h3.02a1 1 0 0 1 .9.56l1.34 2.75h1.6a1 1 0 0 1 .76.34c.09.1.2.24.3.43.21.36.34.74.33 1.16 0 .14-.02.28-.06.42a67.24 67.24 0 0 0-.48 1.77l-.09.36a1 1 0 0 1-.55.66l-1.62.75a26.91 26.91 0 0 1-1.14 2.72c-.87 1.74-1.75 2.92-2.8 3.37a7.13 7.13 0 0 1-3.39.66 7.15 7.15 0 0 1-3.4-.66zm6-1.84c.47-.2 1.14-1.1 1.8-2.42a22.75 22.75 0 0 0 1.17-2.86 1 1 0 0 1 .53-.6l1.58-.74a298.87 298.87 0 0 1 .41-1.52h-1.57a1 1 0 0 1-.9-.57l-1.34-2.74h-2.46a6.81 6.81 0 0 1-2.1-.2c-1.24-.34-2.16-1.05-2.5-2.18-.67.08-1.14.28-1.45.55a1.4 1.4 0 0 0-.26.29l-.03 1.85a1 1 0 0 1-.11.43l-1 2.01a1 1 0 0 1-.9.56h-1.57a102.88 102.88 0 0 1 .4 1.52l1.6.74a1 1 0 0 1 .52.6l.32.89c.26.67.54 1.35.85 1.97.66 1.33 1.33 2.22 1.8 2.42a5.22 5.22 0 0 0 2.79.51 1 1 0 0 1 0 1.97l-.19.02a2.2 2.2 0 0 1-.18-.02 1 1 0 0 1 .37-1.97c.54.06 1.36-.06 2.43-.51z"/><path stroke="none" fill="#fff" d="M13.63 7.77a7.6 7.6 0 0 1 .68-1.67c.8-1.43 1.95-2.24 3.6-2.24h5.57s.18.05.36.17c.3.2.47.52.47 1.13a1 1 0 0 0 .97 1c.72.02 1.21.4 1.23.73v6.18a1 1 0 0 0 2 0V6.85c-.05-1.27-1.02-2.23-2.29-2.57a2.99 2.99 0 0 0-2.66-2.42H17.9a5.88 5.88 0 0 0-5.34 3.26 9.1 9.1 0 0 0-1.08 3.1l-.01.14v4.89a1 1 0 1 0 2 0V8.43c.02-.14.07-.37.15-.66zm.2 17.8c.1.68.4 1.63 1.03 2.59a5.84 5.84 0 0 0 5.13 2.62c2.34 0 4.06-.99 5.2-2.6.66-.96.99-1.9 1.1-2.58a1 1 0 1 0-1.96-.34c-.02.08-.06.27-.15.52-.15.43-.36.86-.64 1.25A4.03 4.03 0 0 1 20 28.78c-1.65 0-2.74-.64-3.47-1.73a4.92 4.92 0 0 1-.71-1.76 1 1 0 1 0-1.98.28z"/></svg>
